<svg width="111" height="23" viewBox="0 0 111 23" fill="none" xmlns="http://www.w3.org/2000/svg">
<path d="M15.84 7.6C15.46 6.9 14.91 6.37 14.19 6.01C13.49 5.63 12.66 5.44 11.7 5.44C10.04 5.44 8.71 5.99 7.71 7.09C6.71 8.17 6.21 9.62 6.21 11.44C6.21 13.38 6.73 14.9 7.77 16C8.83 17.08 10.28 17.62 12.12 17.62C13.38 17.62 14.44 17.3 15.3 16.66C16.18 16.02 16.82 15.1 17.22 13.9H10.71V10.12H21.87V14.89C21.49 16.17 20.84 17.36 19.92 18.46C19.02 19.56 17.87 20.45 16.47 21.13C15.07 21.81 13.49 22.15 11.73 22.15C9.65 22.15 7.79 21.7 6.15 20.8C4.53 19.88 3.26 18.61 2.34 16.99C1.44 15.37 0.99 13.52 0.99 11.44C0.99 9.36 1.44 7.51 2.34 5.89C3.26 4.25 4.53 2.98 6.15 2.08C7.77 1.16 9.62 0.699999 11.7 0.699999C14.22 0.699999 16.34 1.31 18.06 2.53C19.8 3.75 20.95 5.44 21.51 7.6H15.84ZM32.3316 22.24C30.6916 22.24 29.2116 21.89 27.8916 21.19C26.5916 20.49 25.5616 19.49 24.8016 18.19C24.0616 16.89 23.6916 15.37 23.6916 13.63C23.6916 11.91 24.0716 10.4 24.8316 9.1C25.5916 7.78 26.6316 6.77 27.9516 6.07C29.2716 5.37 30.7516 5.02 32.3916 5.02C34.0316 5.02 35.5116 5.37 36.8316 6.07C38.1516 6.77 39.1916 7.78 39.9516 9.1C40.7116 10.4 41.0916 11.91 41.0916 13.63C41.0916 15.35 40.7016 16.87 39.9216 18.19C39.1616 19.49 38.1116 20.49 36.7716 21.19C35.4516 21.89 33.9716 22.24 32.3316 22.24ZM32.3316 17.8C33.3116 17.8 34.1416 17.44 34.8216 16.72C35.5216 16 35.8716 14.97 35.8716 13.63C35.8716 12.29 35.5316 11.26 34.8516 10.54C34.1916 9.82 33.3716 9.46 32.3916 9.46C31.3916 9.46 30.5616 9.82 29.9016 10.54C29.2416 11.24 28.9116 12.27 28.9116 13.63C28.9116 14.97 29.2316 16 29.8716 16.72C30.5316 17.44 31.3516 17.8 32.3316 17.8Z" fill="#2A52E2"/>
<path d="M63.5831 0.939999L56.1131 22H49.6931L42.2231 0.939999H47.6831L52.9031 16.84L58.1531 0.939999H63.5831ZM81.5072 13.36C81.5072 13.84 81.4772 14.34 81.4172 14.86H69.8072C69.8872 15.9 70.2172 16.7 70.7972 17.26C71.3972 17.8 72.1272 18.07 72.9872 18.07C74.2672 18.07 75.1572 17.53 75.6572 16.45H81.1172C80.8372 17.55 80.3272 18.54 79.5872 19.42C78.8672 20.3 77.9572 20.99 76.8572 21.49C75.7572 21.99 74.5272 22.24 73.1672 22.24C71.5272 22.24 70.0672 21.89 68.7872 21.19C67.5072 20.49 66.5072 19.49 65.7872 18.19C65.0672 16.89 64.7072 15.37 64.7072 13.63C64.7072 11.89 65.0572 10.37 65.7572 9.07C66.4772 7.77 67.4772 6.77 68.7572 6.07C70.0372 5.37 71.5072 5.02 73.1672 5.02C74.7872 5.02 76.2272 5.36 77.4872 6.04C78.7472 6.72 79.7272 7.69 80.4272 8.95C81.1472 10.21 81.5072 11.68 81.5072 13.36ZM76.2572 12.01C76.2572 11.13 75.9572 10.43 75.3572 9.91C74.7572 9.39 74.0072 9.13 73.1072 9.13C72.2472 9.13 71.5172 9.38 70.9172 9.88C70.3372 10.38 69.9772 11.09 69.8372 12.01H76.2572ZM91.0235 22.24C89.5635 22.24 88.2635 21.99 87.1235 21.49C85.9835 20.99 85.0835 20.31 84.4235 19.45C83.7635 18.57 83.3935 17.59 83.3135 16.51H88.3835C88.4435 17.09 88.7135 17.56 89.1935 17.92C89.6735 18.28 90.2635 18.46 90.9635 18.46C91.6035 18.46 92.0935 18.34 92.4335 18.1C92.7935 17.84 92.9735 17.51 92.9735 17.11C92.9735 16.63 92.7235 16.28 92.2235 16.06C91.7235 15.82 90.9135 15.56 89.7935 15.28C88.5935 15 87.5935 14.71 86.7935 14.41C85.9935 14.09 85.3035 13.6 84.7235 12.94C84.1435 12.26 83.8535 11.35 83.8535 10.21C83.8535 9.25 84.1135 8.38 84.6335 7.6C85.1735 6.8 85.9535 6.17 86.9735 5.71C88.0135 5.25 89.2435 5.02 90.6635 5.02C92.7635 5.02 94.4135 5.54 95.6135 6.58C96.8335 7.62 97.5335 9 97.7135 10.72H92.9735C92.8935 10.14 92.6335 9.68 92.1935 9.34C91.7735 9 91.2135 8.83 90.5135 8.83C89.9135 8.83 89.4535 8.95 89.1335 9.19C88.8135 9.41 88.6535 9.72 88.6535 10.12C88.6535 10.6 88.9035 10.96 89.4035 11.2C89.9235 11.44 90.7235 11.68 91.8035 11.92C93.0435 12.24 94.0535 12.56 94.8335 12.88C95.6135 13.18 96.2935 13.68 96.8735 14.38C97.4735 15.06 97.7835 15.98 97.8035 17.14C97.8035 18.12 97.5235 19 96.9635 19.78C96.4235 20.54 95.6335 21.14 94.5935 21.58C93.5735 22.02 92.3835 22.24 91.0235 22.24ZM110.272 17.65V22H107.662C105.802 22 104.352 21.55 103.312 20.65C102.272 19.73 101.752 18.24 101.752 16.18V9.52H99.712V5.26H101.752V1.18H106.882V5.26H110.242V9.52H106.882V16.24C106.882 16.74 107.002 17.1 107.242 17.32C107.482 17.54 107.882 17.65 108.442 17.65H110.272Z" fill="#0EB51F"/>
</svg>
