<svg width="56" height="56" viewBox="0 0 56 56" fill="none" xmlns="http://www.w3.org/2000/svg">
<circle cx="28" cy="28" r="28" fill="#D4DCF9"/>
<path d="M27.9903 47.9807C38.9522 47.9807 48 38.9328 48 27.9903C48 17.0478 38.9328 8 27.971 8C17.0285 8 8 17.0478 8 27.9903C8 38.9328 17.0478 47.9807 27.9903 47.9807ZM19.5225 28.2223C19.5225 27.6617 19.9478 27.275 20.4698 27.275H21.5524V20.5858C21.5524 19.4645 22.3258 18.7105 23.4857 18.7105C24.4717 18.7105 25.1097 19.2325 25.5157 20.1025L28.9763 27.275H31.3543V20.2571C31.3543 19.3098 31.9536 18.7105 32.8623 18.7105C33.7516 18.7105 34.3509 19.3098 34.3509 20.2571V27.275H35.4722C36.0135 27.275 36.4195 27.681 36.4195 28.2417C36.4195 28.7637 36.0135 29.189 35.4722 29.189H34.3509V35.8589C34.3509 36.9802 33.5776 37.7342 32.4176 37.7342C31.4123 37.7342 30.7743 37.2122 30.3876 36.3229L26.927 29.1696H24.5297V36.1875C24.5297 37.1348 23.9497 37.7148 23.0411 37.7148C22.1324 37.7148 21.5524 37.1348 21.5524 36.1875V29.1696H20.4698C19.9285 29.1696 19.5225 28.7443 19.5225 28.2223ZM24.5104 27.275H26.1537L24.5104 23.7564V27.275ZM29.7496 29.189L31.3736 32.6883V29.189H29.7496Z" fill="#032406"/>
</svg>
