<svg width="120" height="49" viewBox="0 0 120 49" fill="none" xmlns="http://www.w3.org/2000/svg">
<g clip-path="url(#clip0_1035_269)">
<path d="M115.601 0.0285416H5.20953C3.24097 0.0285416 1.64514 1.62438 1.64514 3.59294V45.4071C1.64514 47.3756 3.24097 48.9715 5.20953 48.9715H115.601C117.57 48.9715 119.165 47.3756 119.165 45.4071V3.59294C119.165 1.62438 117.57 0.0285416 115.601 0.0285416Z" fill="#133F77"/>
<path d="M15.9587 16.5934H24.9559C24.9659 16.5934 24.9758 16.5957 24.9847 16.6001C24.9936 16.6046 25.0014 16.611 25.0074 16.619C25.0134 16.6269 25.0175 16.6362 25.0193 16.646C25.0211 16.6558 25.0206 16.6659 25.0178 16.6755L22.9305 23.8292C22.9267 23.8426 22.9185 23.8544 22.9074 23.8628C22.8962 23.8711 22.8826 23.8756 22.8687 23.8756H12.926C12.9118 23.8759 12.8979 23.8725 12.8854 23.8658C12.873 23.8591 12.8625 23.8493 12.8549 23.8373C12.8474 23.8253 12.8431 23.8116 12.8424 23.7975C12.8417 23.7834 12.8447 23.7693 12.851 23.7567L15.8993 16.6279C15.905 16.6172 15.9136 16.6083 15.9241 16.6022C15.9346 16.5961 15.9466 16.5931 15.9587 16.5934Z" fill="#78C2ED" stroke="white" stroke-width="0.141319" stroke-miterlimit="10"/>
<path d="M22.9744 23.9696L25.0605 16.7873C25.0621 16.7819 25.0654 16.7773 25.0699 16.774C25.0744 16.7707 25.0799 16.7689 25.0854 16.7689C25.091 16.7689 25.0964 16.7707 25.1009 16.774C25.1054 16.7773 25.1088 16.7819 25.1104 16.7873L27.2512 24.431C27.2523 24.4332 27.2529 24.4357 27.2529 24.4382C27.2529 24.4406 27.2523 24.4431 27.2512 24.4453L25.1699 31.6264C25.1686 31.6322 25.1654 31.6375 25.1607 31.6412C25.1561 31.645 25.1503 31.647 25.1443 31.647C25.1383 31.647 25.1325 31.645 25.1279 31.6412C25.1232 31.6375 25.12 31.6322 25.1187 31.6264L22.9708 23.9838C22.9708 23.9788 22.972 23.9739 22.9744 23.9696Z" fill="#123F76" stroke="white" stroke-width="0.142071" stroke-miterlimit="10"/>
<path d="M22.8579 23.947L12.8676 23.9042C12.8607 23.9041 12.854 23.9058 12.8479 23.9089C12.8418 23.9121 12.8365 23.9166 12.8326 23.9222C12.8286 23.9278 12.8261 23.9343 12.8251 23.9411C12.8242 23.9479 12.8249 23.9548 12.8272 23.9612L15.6863 31.8595C15.6895 31.868 15.6951 31.8752 15.7026 31.8804C15.71 31.8855 15.7189 31.8881 15.7279 31.8881L25.0117 31.7061C25.0183 31.7059 25.0248 31.7043 25.0307 31.7013C25.0366 31.6983 25.0417 31.694 25.0457 31.6887C25.0497 31.6835 25.0525 31.6774 25.0538 31.6709C25.0551 31.6645 25.055 31.6578 25.0534 31.6514L22.8959 23.9779C22.8937 23.9694 22.8888 23.9618 22.8819 23.9562C22.8751 23.9507 22.8667 23.9474 22.8579 23.947Z" fill="#0F9CDA" stroke="white" stroke-width="0.141319" stroke-miterlimit="10"/>
<path d="M26.4436 23.9898H35.442C35.452 23.9899 35.4619 23.9924 35.4708 23.997C35.4797 24.0016 35.4875 24.0081 35.4934 24.0162C35.4994 24.0242 35.5035 24.0335 35.5053 24.0434C35.5071 24.0532 35.5066 24.0634 35.5039 24.073L33.4166 31.2268C33.4126 31.2401 33.4044 31.2518 33.3933 31.2601C33.3821 31.2684 33.3687 31.273 33.3548 31.2732H23.4168C23.4027 31.2733 23.3887 31.2699 23.3763 31.2632C23.3639 31.2565 23.3534 31.2467 23.3458 31.2348C23.3382 31.2229 23.3337 31.2093 23.3328 31.1952C23.3319 31.1811 23.3346 31.167 23.3407 31.1542L26.3901 24.0243C26.3954 24.0145 26.4031 24.0062 26.4125 24.0002C26.4218 23.9942 26.4325 23.9906 26.4436 23.9898Z" fill="#78C2ED" stroke="white" stroke-width="0.141319" stroke-miterlimit="10"/>
<path d="M33.4606 31.3659L35.5478 24.1836C35.5491 24.1778 35.5523 24.1726 35.557 24.1688C35.5616 24.1651 35.5674 24.163 35.5734 24.163C35.5794 24.163 35.5852 24.1651 35.5898 24.1688C35.5945 24.1726 35.5977 24.1778 35.599 24.1836L37.7398 31.8274C37.741 31.8321 37.741 31.837 37.7398 31.8417L35.6573 39.024C35.6556 39.0293 35.6523 39.034 35.6478 39.0373C35.6433 39.0406 35.6379 39.0423 35.6323 39.0423C35.6267 39.0423 35.6213 39.0406 35.6168 39.0373C35.6123 39.034 35.609 39.0293 35.6073 39.024L33.4582 31.3826C33.457 31.3769 33.4578 31.371 33.4606 31.3659Z" fill="#123F76" stroke="white" stroke-width="0.142071" stroke-miterlimit="10"/>
<path d="M33.3442 31.3433L23.3539 31.3005C23.3469 31.3004 23.34 31.3021 23.3337 31.3053C23.3275 31.3085 23.3222 31.3132 23.3182 31.3189C23.3142 31.3247 23.3117 31.3313 23.3108 31.3383C23.31 31.3452 23.3109 31.3523 23.3134 31.3588L26.1749 39.2559C26.1783 39.2642 26.184 39.2714 26.1914 39.2765C26.1988 39.2816 26.2076 39.2844 26.2166 39.2844L35.5016 39.1025C35.5082 39.1024 35.5146 39.1007 35.5205 39.0977C35.5263 39.0947 35.5314 39.0904 35.5353 39.0851C35.5392 39.0798 35.5419 39.0737 35.543 39.0672C35.5442 39.0607 35.5439 39.0541 35.542 39.0478L33.3846 31.3743C33.3822 31.3654 33.377 31.3575 33.3697 31.3519C33.3623 31.3463 33.3534 31.3433 33.3442 31.3433Z" fill="#0F9CDA" stroke="white" stroke-width="0.141319" stroke-miterlimit="10"/>
<path d="M26.515 9.12091H35.5122C35.5222 9.12089 35.532 9.12319 35.541 9.12762C35.5499 9.13206 35.5577 9.13852 35.5637 9.14648C35.5697 9.15444 35.5737 9.16369 35.5755 9.1735C35.5773 9.1833 35.5768 9.1934 35.5741 9.20297L33.4868 16.3567C33.4828 16.37 33.4746 16.3817 33.4635 16.39C33.4524 16.3984 33.4389 16.403 33.425 16.4031H23.4822C23.4681 16.4034 23.4541 16.4 23.4417 16.3933C23.4292 16.3866 23.4187 16.3768 23.4112 16.3648C23.4037 16.3528 23.3993 16.3391 23.3987 16.325C23.398 16.3109 23.401 16.2968 23.4073 16.2842L26.4555 9.15778C26.4608 9.14654 26.4693 9.13708 26.4798 9.13054C26.4904 9.12399 26.5026 9.12065 26.515 9.12091Z" fill="#78C2ED" stroke="white" stroke-width="0.141319" stroke-miterlimit="10"/>
<path d="M33.5261 16.4971L35.6109 9.31356C35.6122 9.30772 35.6154 9.30249 35.6201 9.29873C35.6247 9.29498 35.6305 9.29294 35.6365 9.29294C35.6425 9.29294 35.6483 9.29498 35.6529 9.29873C35.6576 9.30249 35.6608 9.30772 35.6621 9.31356L37.8028 16.9561C37.804 16.9612 37.804 16.9665 37.8028 16.9716L35.7215 24.1527C35.7203 24.1585 35.717 24.1638 35.7124 24.1675C35.7077 24.1713 35.7019 24.1733 35.696 24.1733C35.69 24.1733 35.6842 24.1713 35.6795 24.1675C35.6749 24.1638 35.6717 24.1585 35.6704 24.1527L33.5261 16.5113C33.5248 16.5066 33.5248 16.5017 33.5261 16.4971Z" fill="#123F76" stroke="white" stroke-width="0.142071" stroke-miterlimit="10"/>
<path d="M33.4142 16.4733L23.4239 16.4305C23.4169 16.4304 23.41 16.432 23.4038 16.4352C23.3976 16.4384 23.3922 16.4431 23.3883 16.4489C23.3843 16.4546 23.3817 16.4613 23.3809 16.4682C23.3801 16.4752 23.381 16.4822 23.3835 16.4887L26.2462 24.387C26.2493 24.3954 26.255 24.4027 26.2625 24.4076C26.27 24.4125 26.2789 24.4149 26.2878 24.4144L35.5717 24.2324C35.5783 24.2325 35.5849 24.2311 35.5909 24.2282C35.5969 24.2252 35.6021 24.2209 35.6061 24.2155C35.61 24.2102 35.6126 24.2039 35.6137 24.1973C35.6147 24.1908 35.6142 24.184 35.6121 24.1777L33.4559 16.5054C33.4535 16.4962 33.4481 16.488 33.4406 16.4822C33.433 16.4764 33.4238 16.4732 33.4142 16.4733Z" fill="#0F9CDA" stroke="white" stroke-width="0.141319" stroke-miterlimit="10"/>
<path d="M48.5674 25.3635C48.8814 25.1196 49.0883 24.8996 49.1858 24.7022C49.2873 24.4913 49.3378 24.2595 49.3333 24.0255V15.7918C49.3433 15.5597 49.3098 15.3278 49.2346 15.1079C49.1092 14.8543 48.9491 14.6193 48.7589 14.4098H51.97C51.7544 14.6151 51.5694 14.8502 51.4206 15.1079C51.3172 15.3211 51.2631 15.5549 51.2624 15.7918V24.0243C51.2613 24.1367 51.2733 24.2488 51.2981 24.3585C51.3262 24.474 51.366 24.5864 51.417 24.6939C51.4746 24.8139 51.5478 24.9259 51.6346 25.0269C51.7429 25.1495 51.8623 25.2618 51.9914 25.3623L48.5674 25.3635ZM51.3659 19.6048L54.2 15.7918C54.3668 15.5842 54.463 15.3288 54.4747 15.0627C54.4747 14.8701 54.3629 14.6524 54.1417 14.4098H57.3648L53.3758 19.3467C54.0601 20.3774 54.6432 21.208 55.1253 21.8383C55.6074 22.4686 56.1128 23.0661 56.6417 23.6306C56.949 23.9559 57.2725 24.2655 57.611 24.5583C57.791 24.72 57.9817 24.8694 58.1818 25.0055C58.3735 25.1351 58.572 25.2542 58.7765 25.3623H56.361C56.1521 25.3558 55.9479 25.2982 55.7663 25.1946C55.2843 25.0019 54.5707 24.232 53.6256 22.8849L51.9058 20.4242L51.3659 19.6048Z" fill="white"/>
<path d="M64.986 21.5957H59.4533C59.4694 21.867 59.5092 22.1364 59.5723 22.4009C59.6374 22.6122 59.7251 22.816 59.8339 23.0086C60.3548 23.8998 61.1873 24.3454 62.3315 24.3454C62.8071 24.3446 63.2787 24.2571 63.723 24.0873C63.9159 24.0195 64.1046 23.9401 64.2879 23.8494C64.4631 23.7622 64.7046 23.6278 65.0122 23.4463L63.8859 25.3611C63.6094 25.4633 63.3239 25.5393 63.0332 25.5882C62.7362 25.6312 62.4364 25.6515 62.1364 25.6489C60.7489 25.6489 59.6361 25.2691 58.798 24.5095C57.9599 23.7499 57.5409 22.7422 57.5409 21.4863C57.5409 20.3215 57.9167 19.3546 58.6684 18.5855C59.42 17.8164 60.3639 17.4315 61.5001 17.4307C62.6276 17.4307 63.4927 17.7851 64.0952 18.4939C64.6978 19.2028 64.9948 20.2367 64.986 21.5957ZM61.4098 18.5879C60.9657 18.5693 60.5325 18.7275 60.205 19.0279C59.8957 19.3213 59.6928 19.7467 59.596 20.3041H63.0641C63.0746 20.0759 63.0388 19.8479 62.9589 19.6339C62.8789 19.42 62.7566 19.2243 62.5991 19.0589C62.4439 18.9027 62.2582 18.7803 62.0536 18.6992C61.8489 18.6182 61.6297 18.5803 61.4098 18.5879Z" fill="white"/>
<path d="M64.0178 29.1455L65.376 27.5803C65.6058 27.8053 65.911 27.9367 66.2323 27.949C66.3709 27.9565 66.5095 27.9346 66.639 27.8848C66.7685 27.835 66.8861 27.7584 66.984 27.66C67.1065 27.513 67.2133 27.3535 67.3027 27.1843C67.4222 26.9797 67.5191 26.7628 67.5917 26.5373L67.9818 25.4419L65.5639 19.6238C65.2753 18.9237 65.0684 18.4824 64.9431 18.3001C64.817 18.1169 64.5673 17.8993 64.1915 17.6459L64.9574 17.7066C65.0766 17.7052 65.1957 17.6976 65.3142 17.684C65.4498 17.6685 65.5818 17.6507 65.7126 17.6305C65.838 17.6112 65.9614 17.5806 66.0813 17.5389C66.2835 17.4596 66.4571 17.3886 66.6022 17.326L68.9154 23.1073L70.4485 19.1052C70.5602 18.8439 70.632 18.5673 70.6614 18.2846C70.6617 18.173 70.6343 18.0631 70.5817 17.9647C70.5 17.8281 70.3968 17.7056 70.276 17.6019H72.8925L68.9321 26.9738C68.7923 27.3161 68.6282 27.648 68.4409 27.9669C67.8518 28.9183 66.8639 29.394 65.4771 29.394C64.9815 29.3791 64.4904 29.2954 64.0178 29.1455Z" fill="white"/>
<path d="M72.3278 23.4189L72.7179 23.6568C72.882 23.7583 73.0461 23.8494 73.2102 23.9303C73.5721 24.0876 73.9464 24.2146 74.3294 24.3097C74.6904 24.4057 75.0619 24.4569 75.4355 24.4619C75.9112 24.4619 76.2822 24.3708 76.5487 24.1884C76.6751 24.1103 76.7789 24.0005 76.8498 23.8699C76.9208 23.7393 76.9563 23.5925 76.953 23.4439C76.9583 23.2893 76.9223 23.136 76.8488 23C76.7752 22.8639 76.6667 22.7499 76.5344 22.6696C76.4052 22.5921 76.2695 22.5261 76.1288 22.4722C75.9754 22.4104 75.7054 22.32 75.3201 22.1987C74.6461 21.9854 74.2172 21.8383 74.0332 21.7574C73.7936 21.6399 73.5702 21.492 73.3684 21.3174C73.151 21.1384 72.976 20.9133 72.8561 20.6585C72.7362 20.4037 72.6744 20.1254 72.675 19.8438C72.675 19.0945 72.9569 18.5094 73.5207 18.0884C74.0844 17.6674 74.8773 17.4572 75.8993 17.458C76.1985 17.4537 76.4977 17.4692 76.7948 17.5044L77.5762 17.6555V19.1956C77.4573 19.1338 77.2991 19.0529 77.0922 18.9578C76.8731 18.8526 76.6456 18.7663 76.4119 18.6997C76.175 18.6306 75.9296 18.5949 75.6828 18.5938C75.2769 18.5938 74.9597 18.6644 74.7314 18.8055C74.625 18.8666 74.5372 18.9554 74.4773 19.0624C74.4174 19.1694 74.3876 19.2907 74.3912 19.4133C74.3904 19.5433 74.4228 19.6714 74.4852 19.7855C74.5512 19.9053 74.6425 20.0092 74.7528 20.09C74.8727 20.1781 75.0039 20.2497 75.1429 20.3029C75.288 20.3576 75.5282 20.4313 75.866 20.5229C76.3863 20.658 76.895 20.8346 77.3871 21.051C77.687 21.2095 77.9522 21.4262 78.1673 21.6884C78.4464 22.0135 78.586 22.4496 78.586 22.9967C78.5971 23.3554 78.5298 23.7122 78.3887 24.0421C78.2475 24.372 78.036 24.6671 77.7689 24.9067C77.2194 25.4023 76.5058 25.6505 75.6281 25.6513C75.1538 25.6577 74.6798 25.6223 74.2116 25.5454L73.4029 25.3777L73.0461 25.3325L72.3278 23.4189Z" fill="white"/>
<path d="M78.5287 18.7092V18.0408C79.1836 17.9615 79.6558 17.7082 79.9452 17.2808C80.2346 16.8535 80.3789 16.1902 80.3781 15.2911V15.1044H81.2308V17.6019H83.211V19.2432L83.079 19.1243C82.9947 19.0434 82.904 18.9694 82.8079 18.9031C82.7146 18.8433 82.6133 18.7972 82.507 18.7663C82.3635 18.7283 82.2153 18.7107 82.0669 18.714H81.2344V22.8909C81.2305 23.0496 81.2357 23.2084 81.2499 23.3666C81.2711 23.4647 81.3115 23.5577 81.3688 23.6401C81.503 23.8335 81.6924 23.9819 81.9123 24.0659C82.1719 24.1788 82.4523 24.2359 82.7353 24.2336L83.0433 24.2181L82.011 25.5704C81.5722 25.5368 81.1398 25.4448 80.7254 25.2968C80.4131 25.1652 80.1394 24.9565 79.9297 24.6903C79.7668 24.4993 79.6453 24.2765 79.5729 24.0362C79.4994 23.7125 79.4678 23.3807 79.479 23.049V18.7092H78.5287Z" fill="white"/>
<path d="M83.0803 21.428C83.0803 20.2236 83.4946 19.2262 84.3232 18.4357C85.1517 17.6452 86.1924 17.2487 87.4451 17.2463C88.6781 17.2463 89.6755 17.6309 90.4375 18.4C91.1994 19.1691 91.58 20.1871 91.5792 21.4542C91.5792 22.6696 91.1697 23.6722 90.3506 24.4619C89.5316 25.2517 88.4909 25.6481 87.2287 25.6513C85.9767 25.6513 84.9721 25.2639 84.2149 24.4893C83.4577 23.7147 83.0795 22.6942 83.0803 21.428ZM84.9166 21.3221V21.4589C84.9166 22.2994 85.1648 23.0007 85.6611 23.5628C85.884 23.8304 86.1637 24.0449 86.48 24.1908C86.7962 24.3366 87.1409 24.4102 87.4891 24.406C87.8056 24.4116 88.1188 24.3406 88.4019 24.1989C88.685 24.0573 88.9297 23.8492 89.1149 23.5925C89.5336 23.051 89.7433 22.3549 89.7441 21.5041C89.7441 20.6224 89.5126 19.9033 89.0495 19.3467C88.8352 19.0791 88.5619 18.8647 88.251 18.7203C87.9401 18.5759 87.5999 18.5053 87.2572 18.5142C86.935 18.505 86.615 18.57 86.3219 18.7042C86.0289 18.8385 85.7707 19.0384 85.5672 19.2884C85.1327 19.803 84.9158 20.4809 84.9166 21.3221Z" fill="white"/>
<path d="M92.0406 17.6757L92.6044 17.6911L93.2978 17.6471C93.4658 17.6239 93.6323 17.5901 93.7961 17.546C93.9364 17.5064 94.1414 17.4434 94.411 17.3569V18.4202C94.6893 18.0779 95.0425 17.804 95.4433 17.6196C95.8442 17.4353 96.282 17.3454 96.723 17.3569C98.6021 17.3569 99.5417 18.2906 99.5417 20.1578V24.236C99.5411 24.313 99.5507 24.3898 99.5702 24.4643L99.6142 24.632C99.6998 24.9201 99.8711 25.1753 100.105 25.3634H97.1547C97.3562 25.2265 97.5163 25.0368 97.6174 24.8152C97.7101 24.5147 97.7503 24.2005 97.7363 23.8863V19.8819C97.6483 19.0993 97.1353 18.7084 96.1973 18.7092C95.5678 18.7092 95.0984 18.8713 94.7892 19.1956C94.6445 19.322 94.5389 19.487 94.4847 19.6714C94.4241 19.9847 94.3997 20.3039 94.4122 20.6228V23.8815C94.4019 24.178 94.4421 24.474 94.5311 24.7569C94.6303 24.9943 94.7898 25.2018 94.9937 25.3587H92.0847C92.1663 25.2841 92.2434 25.2047 92.3154 25.1208C92.3508 25.0802 92.383 25.0368 92.4117 24.9912C92.4863 24.8909 92.5416 24.7775 92.5747 24.657L92.6198 24.2621V19.2408C92.6338 18.9161 92.5997 18.5911 92.5188 18.2763C92.4176 18.036 92.2521 17.8282 92.0406 17.6757Z" fill="white"/>
<path d="M108.041 21.5957H102.507C102.523 21.867 102.563 22.1364 102.626 22.4009C102.691 22.6122 102.778 22.816 102.887 23.0086C103.408 23.8998 104.241 24.3454 105.385 24.3454C105.86 24.3446 106.332 24.2571 106.776 24.0873C106.969 24.0195 107.158 23.9401 107.341 23.8494C107.515 23.7622 107.756 23.6278 108.066 23.4463L106.939 25.3611C106.663 25.4633 106.377 25.5393 106.087 25.5882C105.79 25.6312 105.49 25.6515 105.19 25.6489C103.801 25.6489 102.689 25.2691 101.851 24.5095C101.014 23.7499 100.595 22.7422 100.594 21.4863C100.594 20.3215 100.97 19.3546 101.722 18.5855C102.473 17.8164 103.417 17.4315 104.553 17.4307C105.681 17.4307 106.546 17.7851 107.149 18.4939C107.751 19.2028 108.049 20.2367 108.041 21.5957ZM104.464 18.5879C104.02 18.5693 103.587 18.7275 103.26 19.0279C102.95 19.3213 102.747 19.7467 102.649 20.3041H106.119C106.129 20.0759 106.093 19.8479 106.013 19.6339C105.933 19.42 105.811 19.2243 105.654 19.0589C105.498 18.9027 105.313 18.7803 105.108 18.6992C104.903 18.6182 104.684 18.5803 104.464 18.5879Z" fill="white"/>
<path d="M48.6115 39.7066C48.7491 39.6046 48.8773 39.4904 48.9944 39.3653C49.0791 39.2705 49.1522 39.1659 49.2121 39.0537C49.3148 38.8406 49.3665 38.6064 49.3631 38.3698V30.1207C49.3692 29.8887 49.3245 29.6582 49.2323 29.4452C49.0958 29.189 48.9205 28.9555 48.7125 28.753H51.9059C53.0238 28.753 53.9249 28.9001 54.6092 29.1942C55.0142 29.3707 55.3601 29.6596 55.6058 30.0268C55.8484 30.4022 55.9727 30.8418 55.9626 31.2886C55.9717 31.5455 55.9291 31.8015 55.8374 32.0415C55.7456 32.2816 55.6067 32.5008 55.4286 32.6861C55.2982 32.8335 55.1472 32.9613 54.9803 33.0655C54.7651 33.1903 54.5375 33.2924 54.3012 33.3699C54.6059 33.4108 54.9059 33.4817 55.1967 33.5816C55.4275 33.6744 55.6422 33.8028 55.833 33.9622C56.4974 34.4887 56.8297 35.2126 56.8297 36.1339C56.8295 36.5117 56.766 36.8868 56.6417 37.2436C56.5184 37.6041 56.3381 37.9426 56.1077 38.2462C55.6815 38.7771 55.1081 39.1705 54.4593 39.3772C53.7941 39.596 52.8645 39.7051 51.6704 39.7043L48.6115 39.7066ZM51.228 29.9685V33.2201C51.3818 33.2454 51.5371 33.2605 51.693 33.2653C52.5168 33.2653 53.098 33.1067 53.4365 32.7896C53.5996 32.6355 53.729 32.4493 53.8166 32.2428C53.9042 32.0363 53.9481 31.8139 53.9456 31.5895C53.9456 31.0631 53.7759 30.6527 53.4365 30.3586C53.0972 30.0644 52.6131 29.9177 51.9844 29.9185L51.228 29.9685ZM51.228 34.3285V38.2533C51.4586 38.3179 51.6929 38.3688 51.9297 38.4055C52.1239 38.4275 52.3193 38.4374 52.5148 38.4353C53.1991 38.4353 53.7628 38.237 54.206 37.8406C54.5677 37.5034 54.7981 37.0489 54.8562 36.5578C54.9144 36.0668 54.7965 35.571 54.5236 35.1587C54.2826 34.8235 53.9329 34.5822 53.534 34.476C53.066 34.3437 52.5813 34.2796 52.095 34.2857L51.228 34.3285Z" fill="white"/>
<path d="M58.1783 33.7767L59.3926 31.9547C59.7208 31.8738 59.9587 31.8226 60.1062 31.8024C60.3341 31.778 60.5632 31.7677 60.7924 31.7715C61.7653 31.7715 62.507 31.9895 63.0176 32.4256C63.2238 32.5887 63.3834 32.8033 63.4803 33.0476C63.5481 33.251 63.5814 33.6149 63.5814 34.1418V37.347C63.5694 37.5899 63.5938 37.8333 63.6539 38.069C63.7129 38.2203 63.8267 38.3439 63.9727 38.415C64.2031 38.5203 64.4559 38.5672 64.7088 38.5518H65.0276L64.0916 39.8708C63.9373 39.9184 63.7773 39.9449 63.6159 39.9493C63.1566 39.9521 62.713 39.7823 62.373 39.4735C62.0067 39.1508 61.8236 38.7901 61.8236 38.3913V35.7985L61.4037 35.9353L60.7246 36.0875C60.2784 36.1935 59.8467 36.3533 59.439 36.5633C59.1202 36.7559 58.9632 37.064 58.9632 37.4897C58.9556 37.6582 58.9884 37.8261 59.0587 37.9794C59.129 38.1326 59.2349 38.2669 59.3676 38.371C59.6372 38.5835 60.0031 38.6898 60.4653 38.6898C60.6378 38.6903 60.8099 38.674 60.9791 38.641C61.2163 38.5905 61.4502 38.5257 61.6796 38.4472L60.8091 39.7352C60.5585 39.8065 60.3393 39.8601 60.1514 39.8957C59.9825 39.9295 59.8109 39.9474 59.6388 39.9493C59.3104 39.95 58.9855 39.8828 58.6844 39.7518C58.3833 39.6208 58.1126 39.4289 57.8893 39.1881C57.6496 38.9573 57.4593 38.6801 57.3301 38.3734C57.2009 38.0667 57.1354 37.7369 57.1376 37.4041C57.1376 36.2481 57.9702 35.5123 59.6352 35.1967L60.4879 35.0148C60.9692 34.9236 61.3038 34.809 61.4917 34.6711C61.5838 34.6048 61.6578 34.5165 61.707 34.4143C61.7562 34.3121 61.7791 34.1992 61.7736 34.0859C61.7799 33.9538 61.7536 33.8223 61.6969 33.7028C61.6403 33.5833 61.5551 33.4796 61.4489 33.4009C61.1872 33.2251 60.8753 33.1395 60.5605 33.1571C60.3131 33.1631 60.0665 33.1886 59.8231 33.2332C59.4568 33.3236 59.1987 33.3925 59.0501 33.4377C58.9014 33.4829 58.6124 33.5995 58.1783 33.7767Z" fill="white"/>
<path d="M64.6541 32.0201L65.2166 32.0343L65.9112 31.9915C66.0791 31.9672 66.2455 31.9331 66.4095 31.8892C66.5486 31.8512 66.7544 31.7881 67.0244 31.7001V32.7705C67.302 32.427 67.6549 32.1518 68.0558 31.9662C68.4567 31.7806 68.8948 31.6896 69.3364 31.7001C71.2155 31.7001 72.1551 32.6338 72.1551 34.501V38.5804C72.1546 38.6574 72.1642 38.7342 72.1836 38.8087C72.2027 38.8801 72.2169 38.936 72.2265 38.9764C72.3129 39.264 72.4846 39.5186 72.7188 39.7066H69.7693C69.9714 39.5703 70.1315 39.3805 70.232 39.1584C70.3256 38.8581 70.3658 38.5437 70.3509 38.2295V34.2251C70.2629 33.4441 69.7499 33.0532 68.8119 33.0524C68.1832 33.0524 67.7138 33.2149 67.4038 33.54C67.259 33.6665 67.153 33.8315 67.0981 34.0157C67.0387 34.3292 67.0148 34.6484 67.0267 34.9672V38.2259C67.0163 38.5224 67.0565 38.8184 67.1457 39.1013C67.2442 39.3391 67.4038 39.5468 67.6083 39.7031H64.6969C64.7788 39.6292 64.8555 39.5497 64.9264 39.4652C64.9622 39.425 64.9948 39.3821 65.0239 39.3368C65.0978 39.236 65.153 39.1228 65.1869 39.0026L65.2321 38.6065V33.584C65.2459 33.2593 65.2119 32.9343 65.131 32.6195C65.0303 32.3795 64.8653 32.1721 64.6541 32.0201Z" fill="white"/>
<path d="M73.3112 28.7685L73.8749 28.7839C74.4816 28.7713 75.082 28.6584 75.6517 28.4497V38.5827C75.6603 38.7162 75.6822 38.8485 75.7171 38.9776C75.7446 39.1182 75.7936 39.2538 75.8622 39.3796C75.952 39.5055 76.0617 39.6159 76.1869 39.7066H73.3254C73.4998 39.5513 73.6337 39.3557 73.7155 39.137C73.7946 38.8425 73.8287 38.5377 73.8166 38.2331V30.1659C73.8308 29.8722 73.8015 29.5781 73.7298 29.2929C73.6398 29.0837 73.4952 28.9026 73.3112 28.7685ZM75.7041 35.3097L77.488 33.2201C77.7687 32.9077 77.9091 32.6302 77.9091 32.3876C77.9091 32.2686 77.827 32.12 77.6641 31.9475H80.3805L77.6177 35.1801L80.5803 38.8563C80.8695 39.2038 81.2228 39.4924 81.6209 39.7066H79.6966C79.4252 39.7229 79.154 39.6706 78.9081 39.5544C78.7297 39.4537 78.5247 39.2408 78.2932 38.9157L75.7041 35.3097Z" fill="white"/>
<path d="M34.8343 16.93H43.8327C43.8427 16.9301 43.8525 16.9326 43.8614 16.9372C43.8704 16.9418 43.8781 16.9483 43.8841 16.9564C43.8901 16.9644 43.8941 16.9737 43.8959 16.9836C43.8977 16.9934 43.8972 17.0036 43.8945 17.0132L41.8037 24.167C41.7996 24.1803 41.7915 24.192 41.7803 24.2003C41.7692 24.2086 41.7557 24.2132 41.7418 24.2134H31.7991C31.785 24.2135 31.7711 24.2101 31.7586 24.2034C31.7462 24.1967 31.7357 24.1869 31.7281 24.175C31.7205 24.1631 31.716 24.1495 31.7151 24.1354C31.7142 24.1213 31.7169 24.1072 31.723 24.0944L34.7724 16.9657C34.7779 16.9541 34.7868 16.9446 34.7978 16.9382C34.8088 16.9318 34.8216 16.929 34.8343 16.93Z" fill="#78C2ED" stroke="white" stroke-width="0.141319" stroke-miterlimit="10"/>
<path d="M41.8513 24.3062L43.9327 17.1262C43.9339 17.1204 43.9371 17.1152 43.9418 17.1114C43.9465 17.1077 43.9522 17.1056 43.9582 17.1056C43.9642 17.1056 43.97 17.1077 43.9746 17.1114C43.9793 17.1152 43.9825 17.1204 43.9838 17.1262L46.1246 24.77C46.1258 24.7747 46.1258 24.7796 46.1246 24.7843L44.0433 31.9666C44.042 31.9724 44.0388 31.9776 44.0341 31.9814C44.0295 31.9851 44.0237 31.9872 44.0177 31.9872C44.0117 31.9872 44.0059 31.9851 44.0013 31.9814C43.9966 31.9776 43.9934 31.9724 43.9921 31.9666L41.8513 24.3216C41.8502 24.3165 41.8502 24.3112 41.8513 24.3062Z" fill="#123F76" stroke="white" stroke-width="0.142071" stroke-miterlimit="10"/>
<path d="M41.7325 24.2835L31.7422 24.2407C31.7352 24.2406 31.7283 24.2423 31.722 24.2455C31.7158 24.2487 31.7105 24.2534 31.7065 24.2591C31.7025 24.2649 31.7 24.2715 31.6992 24.2785C31.6983 24.2854 31.6992 24.2925 31.7017 24.299L34.5644 32.1961C34.5672 32.2045 34.5727 32.2119 34.58 32.217C34.5872 32.2222 34.596 32.2248 34.6049 32.2246L43.8899 32.0427C43.8966 32.0428 43.9032 32.0414 43.9092 32.0384C43.9151 32.0355 43.9203 32.0312 43.9243 32.0258C43.9283 32.0204 43.9309 32.0142 43.9319 32.0076C43.933 32.001 43.9324 31.9943 43.9303 31.988L41.7741 24.3145C41.7712 24.3057 41.7656 24.298 41.7582 24.2924C41.7507 24.2869 41.7417 24.2838 41.7325 24.2835Z" fill="#0F9CDA" stroke="white" stroke-width="0.141319" stroke-miterlimit="10"/>
</g>
<defs>
<clipPath id="clip0_1035_269">
<rect width="118.932" height="49" fill="white" transform="translate(0.938721)"/>
</clipPath>
</defs>
</svg>
