<svg width="143" height="43" viewBox="0 0 143 43" fill="none" xmlns="http://www.w3.org/2000/svg">
<path d="M75.9148 5.30162C75.9334 5.27018 75.9548 5.27018 75.9805 5.30162L75.942 5.33307L75.9148 5.30162Z" fill="#0124DD"/>
<path d="M43.0761 16.285C43.4892 15.0358 43.8808 13.8551 44.2639 12.6844C44.3111 12.5415 44.4069 12.5086 44.5312 12.4857C46.5995 12.0998 48.6764 11.771 50.7891 11.8754C52.2799 11.9454 53.7136 12.2499 54.9972 13.0503C56.7382 14.1338 57.5343 15.7662 57.6473 17.7673C57.713 18.918 57.5258 20.0543 57.3614 21.1807C57.0198 23.4763 56.6681 25.769 56.338 28.0646C56.3289 28.1609 56.2942 28.253 56.2374 28.3312C56.1805 28.4094 56.1037 28.4709 56.0149 28.5092C54.6684 29.2482 53.2076 29.6527 51.7067 29.8985C49.8493 30.2204 47.9549 30.2685 46.0835 30.0415C44.5241 29.8456 43.0704 29.3611 41.9383 28.2147C41.447 27.7117 41.0656 27.112 40.8184 26.4538C40.5711 25.7955 40.4633 25.0931 40.5019 24.391C40.5405 23.6889 40.7245 23.0025 41.0424 22.3753C41.3603 21.7481 41.8051 21.1938 42.3485 20.7476C43.5092 19.7928 44.8814 19.3182 46.3265 19.0109C48.5149 18.5478 50.7233 18.6107 52.9331 18.7793C53.209 18.7993 53.2691 18.715 53.2819 18.4691C53.3805 16.7453 52.3457 15.5075 50.5289 15.1744C49.2682 14.9428 48.0303 15.143 46.7925 15.3459C45.5295 15.5538 44.2862 15.8679 43.0761 16.285ZM50.8062 21.4852C50.0196 21.48 49.2337 21.5379 48.4563 21.6581C47.6158 21.8011 46.7996 22.0226 46.1221 22.5801C45.356 23.2104 45.1516 24.0566 45.3031 24.9886C45.446 25.8391 46.0406 26.3051 46.8111 26.5795C47.1642 26.7037 47.5316 26.783 47.9046 26.8153C49.2825 26.9483 50.6204 26.7081 51.9497 26.3794C52.0399 26.3675 52.1226 26.323 52.1821 26.2542C52.2416 26.1854 52.2739 26.0973 52.2728 26.0063C52.4543 24.6555 52.6344 23.3033 52.8345 21.9554C52.8688 21.7224 52.7916 21.6781 52.5972 21.641C52.0051 21.5432 51.4063 21.4911 50.8062 21.4852Z" fill="#114185"/>
<path d="M106.89 25.699C106.661 26.3937 106.461 27.0154 106.249 27.6372C106.081 28.1475 105.901 28.6535 105.74 29.1681C105.725 29.2469 105.687 29.3193 105.63 29.3763C105.574 29.4333 105.502 29.4723 105.423 29.4883C103.236 30.0715 101.021 30.3874 98.7621 30.1029C96.1892 29.7785 94.0623 28.6735 92.7587 26.3136C91.9568 24.8528 91.7024 23.2619 91.811 21.6224C92.0183 18.5034 93.3176 15.9177 95.7333 13.9151C97.2012 12.6973 98.9137 12.0712 100.798 11.8854C102.097 11.7582 103.389 11.7825 104.657 12.1355C107.238 12.8502 108.959 14.8585 109.29 17.5172C109.48 19.0452 109.29 20.546 109.042 22.0483C109.012 22.2356 108.918 22.2413 108.775 22.2413C108.082 22.2413 107.387 22.2413 106.694 22.2413C103.359 22.2413 100.023 22.2413 96.6881 22.2413C96.4194 22.2413 96.3408 22.307 96.3365 22.5829C96.2993 24.8299 97.54 26.3136 99.7484 26.6924C101.381 26.9783 102.969 26.731 104.554 26.3851C105.347 26.2078 106.127 25.9786 106.89 25.699ZM101.058 19.3239H104.26C105.237 19.3239 105.237 19.3239 105.27 18.3462C105.337 16.3665 104.127 15.0758 102.158 14.9657C99.8042 14.8328 97.5843 16.538 97.0126 19.0681C96.9654 19.2782 97.0126 19.3296 97.227 19.3282C98.5006 19.3182 99.7713 19.3239 101.058 19.3239Z" fill="#114185"/>
<path d="M115.109 30.1601C113.01 30.1461 110.926 29.7988 108.936 29.1309C108.738 29.0623 108.685 29.0052 108.756 28.7893C109.083 27.7992 109.396 26.8044 109.695 25.8048C109.77 25.5589 109.857 25.5789 110.054 25.6733C111.965 26.6081 114.124 26.9124 116.219 26.5423C116.711 26.4675 117.177 26.2763 117.58 25.9849C117.766 25.8557 117.921 25.6864 118.034 25.4894C118.146 25.2925 118.213 25.0728 118.229 24.8467C118.245 24.6206 118.21 24.3937 118.127 24.1828C118.044 23.9718 117.915 23.7822 117.749 23.6278C117.385 23.2915 116.977 23.0067 116.537 22.7816C115.443 22.1698 114.331 21.5966 113.292 20.8877C110.5 18.9766 110.84 14.9986 113.589 13.2533C114.807 12.48 116.141 12.0926 117.557 11.9454C119.918 11.701 122.201 12.1055 124.451 12.783C124.657 12.8445 124.71 12.9002 124.631 13.1189C124.292 14.0581 123.965 15.0029 123.658 15.9534C123.576 16.2036 123.479 16.185 123.286 16.0964C121.879 15.4323 120.338 15.0998 118.782 15.1244C118.027 15.143 117.291 15.2673 116.652 15.7133C116.381 15.8865 116.173 16.144 116.062 16.4464C115.951 16.7488 115.943 17.0793 116.038 17.3871C116.161 17.7323 116.393 18.0279 116.699 18.229C117.361 18.7264 118.119 19.0623 118.844 19.4597C119.73 19.9227 120.577 20.4591 121.374 21.0635C123.729 22.9331 123.491 26.4952 121.231 28.3048C119.773 29.4697 118.066 29.9357 116.251 30.1015C115.795 30.1415 115.342 30.1487 115.109 30.1601Z" fill="#114185"/>
<path d="M130.527 30.1601C128.456 30.1401 126.401 29.7962 124.437 29.1409C124.209 29.0652 124.151 28.998 124.235 28.7579C124.558 27.7887 124.864 26.8139 125.161 25.8362C125.233 25.5989 125.304 25.5646 125.536 25.6761C127.439 26.6023 129.585 26.9073 131.671 26.548C132.118 26.4779 132.546 26.3184 132.93 26.0792C133.878 25.4746 133.994 24.3639 133.193 23.5863C132.857 23.2847 132.484 23.0276 132.083 22.8216C130.939 22.1727 129.751 21.5924 128.675 20.8205C126.192 19.0266 126.501 15.7805 128.019 14.151C129.042 13.0546 130.334 12.4657 131.768 12.1498C133.671 11.721 135.572 11.8239 137.471 12.1755C138.272 12.3185 139.055 12.5357 139.838 12.7473C140.099 12.8202 140.193 12.8974 140.083 13.1947C139.753 14.0909 139.452 14.9972 139.161 15.9105C139.079 16.1607 138.998 16.1964 138.752 16.0892C137.364 15.4372 135.846 15.1056 134.312 15.1187C133.598 15.1315 132.907 15.2373 132.284 15.6118C131.694 15.9648 131.395 16.478 131.484 17.1841C131.539 17.6329 131.809 17.946 132.15 18.2033C132.864 18.745 133.686 19.1024 134.464 19.5312C135.35 20.0215 136.225 20.5317 136.998 21.1907C139.165 23.0489 138.921 26.4937 136.747 28.2662C135.579 29.2196 134.224 29.7141 132.761 29.97C132.023 30.09 131.276 30.1536 130.527 30.1601Z" fill="#114185"/>
<path d="M73.8993 25.952C73.8264 26.3808 73.642 26.7653 73.5062 27.1698C73.2475 27.9403 72.9716 28.7036 72.7157 29.4754C72.6969 29.5526 72.6541 29.6219 72.5935 29.6732C72.5329 29.7246 72.4576 29.7554 72.3784 29.7613C70.6631 30.0472 68.9293 30.2287 67.1869 30.0972C64.5868 29.9014 62.357 28.9537 60.8247 26.7382C59.744 25.1773 59.3624 23.4034 59.4582 21.5352C59.6183 18.4191 60.939 15.8691 63.3733 13.9166C64.7683 12.7988 66.4093 12.2499 68.1574 12.0212C70.3213 11.7145 72.5249 11.8462 74.6368 12.4085C75.0399 12.5186 75.4287 12.673 75.8246 12.8016C75.9676 12.8474 76.0048 12.9088 75.9519 13.0646C75.6145 14.0509 75.2801 15.0401 74.9642 16.0335C74.8941 16.2522 74.7955 16.2079 74.654 16.1521C73.6447 15.7383 72.576 15.4878 71.4879 15.4103C69.1337 15.2773 67.0868 15.9248 65.6174 17.8845C64.2409 19.7213 64.0279 22.7716 65.5016 24.6155C66.4179 25.759 67.6271 26.3651 69.0622 26.5323C70.6102 26.7124 72.1068 26.4137 73.5848 25.9892C73.6791 25.962 73.7749 25.9434 73.8707 25.9206L73.8993 25.952Z" fill="#114185"/>
<path d="M90.1944 25.932C89.8656 26.8782 89.4882 27.8145 89.2181 28.7807C89.0223 29.4854 88.6921 29.8199 87.9231 29.8971C85.779 30.1115 83.6349 30.3516 81.4908 29.7842C78.1189 28.8879 75.9162 26.1978 75.7332 22.7016C75.5331 18.9022 76.9882 15.8662 80.0486 13.6207C81.335 12.6787 82.8359 12.2327 84.4025 12.0283C86.5659 11.7226 88.7686 11.8539 90.8805 12.4142C91.2721 12.5215 91.648 12.6815 92.0383 12.7945C92.2427 12.8545 92.2484 12.9474 92.1812 13.1261C91.8539 14.0823 91.5294 15.0386 91.2249 16.002C91.152 16.2321 91.0649 16.2236 90.8776 16.1521C89.3796 15.5803 87.8473 15.2702 86.2307 15.4374C83.4848 15.7319 81.395 17.5472 80.8676 20.2187C80.4874 22.1469 80.8362 23.9108 82.3728 25.2759C83.5977 26.3622 85.0886 26.6652 86.6766 26.5723C87.797 26.4986 88.904 26.2873 89.9728 25.9434C90.0371 25.932 90.0943 25.8791 90.1944 25.932Z" fill="#114185"/>
<path d="M35.7403 21.9983L17.9345 4.19241V6.92541L33.0074 21.9983L33.0131 22.004L19.957 35.06L19.9413 35.0443L6.89387 21.9983L6.88243 21.9869L13.2875 15.5818H10.5074L4.09656 21.9926L4.10228 21.9983L19.9356 37.8316L19.9413 37.8259L35.7546 22.0126L35.7403 21.9983Z" fill="#FE6309"/>
<path d="M17.9288 8.80648V11.5395L28.3933 22.004L19.9628 30.4345L11.5251 21.9983L11.5137 21.9869L17.9187 15.5818H15.1386L8.72778 21.9926L8.7335 21.9983L18.5663 31.8311L19.9413 33.2061L21.3393 31.8096L31.1349 22.0126L17.9288 8.80648Z" fill="#FE6309"/>
<path d="M26.5195 21.9983L21.2979 16.771L19.9085 15.3817L18.542 16.7482L13.2933 21.9926L18.5449 27.2441L19.92 28.6192L21.3151 27.2227L26.5338 22.0126L26.5195 21.9983ZM19.9443 25.8576L16.0849 21.9983L16.0735 21.9869L19.9228 18.1375L23.7822 21.9969L19.9443 25.8576Z" fill="#FE6309"/>
</svg>
