<svg width="142" height="37" viewBox="0 0 142 37" fill="none" xmlns="http://www.w3.org/2000/svg">
<path d="M86.5187 12.9291V32.4638H80.8535V29.6109C80.2752 30.6021 79.4357 31.4154 78.4267 31.9622C77.3825 32.5115 76.217 32.7899 75.0373 32.7717C72.5969 32.7717 70.7731 32.0906 69.5658 30.7284C68.3585 29.3662 67.7561 27.3112 67.7587 24.5635V12.9291H73.5692V24.6797C73.5692 27.0426 74.5834 28.2241 76.6119 28.2241C77.8179 28.2241 78.794 27.8135 79.5404 26.9923C80.2867 26.1711 80.6592 25.0923 80.6579 23.7559V12.9291H86.5187ZM108.734 4.01975V32.4638H102.993V29.5741C102.398 30.5783 101.531 31.3931 100.491 31.9234C99.3585 32.5016 98.1015 32.7929 96.8303 32.7717C95.2434 32.7979 93.685 32.3479 92.3563 31.4799C91.0159 30.5839 89.9547 29.3288 89.2942 27.858C88.562 26.3086 88.196 24.53 88.196 22.5221C88.196 20.5143 88.562 18.7486 89.2942 17.2249C89.9537 15.7801 91.0086 14.5513 92.3369 13.6806C93.6796 12.8337 95.2412 12.3994 96.8284 12.4313C98.072 12.416 99.301 12.7004 100.411 13.2603C101.446 13.7722 102.314 14.5666 102.916 15.5515V4.01975H108.734ZM101.847 26.8567C102.621 25.8689 103.009 24.4486 103.009 22.5957C103.009 20.7712 102.617 19.3651 101.833 18.3773C101.049 17.3896 99.9518 16.895 98.5405 16.8937C97.1008 16.8937 95.9833 17.3818 95.1879 18.358C94.3925 19.3341 93.9948 20.7209 93.9948 22.5182C93.9948 24.3673 94.3925 25.7992 95.1879 26.8141C95.9833 27.829 97.1008 28.3364 98.5405 28.3364C99.9699 28.339 101.072 27.8458 101.847 26.8567ZM130.949 12.9291V32.4638H125.207V29.5741C124.612 30.579 123.743 31.3939 122.702 31.9234C121.57 32.5001 120.314 32.79 119.044 32.7679C117.458 32.8108 115.895 32.3813 114.554 31.5339C113.213 30.6866 112.154 29.4597 111.511 28.0091C110.779 26.4816 110.413 24.7159 110.413 22.7119C110.413 20.708 110.779 18.9222 111.511 17.3547C112.168 15.877 113.23 14.6153 114.573 13.7154C115.902 12.8509 117.459 12.4036 119.044 12.4313C120.319 12.4109 121.578 12.7162 122.702 13.3184C123.74 13.8699 124.606 14.696 125.207 15.7065V12.9291H130.949ZM124.052 26.8741C124.827 25.898 125.214 24.4854 125.214 22.6364C125.214 20.7874 124.827 19.3671 124.052 18.3754C123.277 17.3851 122.173 16.8905 120.738 16.8918C119.304 16.8931 118.186 17.4076 117.386 18.4355C116.59 19.4684 116.192 20.8946 116.191 22.7139C116.189 24.5332 116.581 25.9264 117.366 26.8935C118.15 27.8555 119.274 28.3371 120.738 28.3384C122.175 28.3397 123.28 27.8522 124.052 26.8761V26.8741ZM66.5753 32.7388H59.3568L51.5902 23.8818V32.7388H45.6984V4.01975H51.5902V21.4608L59.0043 12.9949H66.0679L57.6776 22.4853L66.5753 32.7388ZM29.557 32.7485L18.2499 19.7331L24.4245 32.7485H20.1441L13.8456 19.4794L16.4642 32.7485H13.834L11.2135 19.46V32.7485H10.1812V4.01975H11.2135V18.3522L13.8708 4.01975H16.4932L13.8243 18.4141L20.2448 4.01975H24.4787L18.0834 18.3619L29.6965 4.01975H36.332L24.3199 18.8577L36.3882 32.7485H29.557Z" fill="#41276D"/>
<path d="M135.828 32.4328C137.59 32.4328 139.018 31.0046 139.018 29.2428C139.018 27.4811 137.59 26.0529 135.828 26.0529C134.066 26.0529 132.638 27.4811 132.638 29.2428C132.638 31.0046 134.066 32.4328 135.828 32.4328Z" fill="#41276D"/>
</svg>
